<svg width="10" height="22" viewBox="0 0 10 22" fill="none" xmlns="http://www.w3.org/2000/svg">
<path d="M4.98855 0.723304C4.87809 0.725037 4.76945 0.751699 4.67075 0.801302C4.57204 0.850904 4.48581 0.922165 4.4185 1.00976C4.41754 1.01119 4.41658 1.01262 4.41563 1.01406L0.814853 4.61484C0.744473 4.68241 0.688283 4.76335 0.649575 4.85291C0.610866 4.94247 0.590416 5.03886 0.589424 5.13642C0.588431 5.23398 0.606916 5.33076 0.643795 5.42109C0.680674 5.51142 0.735205 5.59349 0.804196 5.66248C0.873187 5.73147 0.95525 5.786 1.04558 5.82288C1.13591 5.85976 1.23269 5.87824 1.33025 5.87725C1.42782 5.87626 1.5242 5.85581 1.61376 5.8171C1.70332 5.77839 1.78426 5.7222 1.85183 5.65182L4.26668 3.23698V20.5333C4.2653 20.6305 4.28325 20.727 4.31949 20.8172C4.35573 20.9073 4.40953 20.9894 4.47776 21.0586C4.54599 21.1278 4.6273 21.1828 4.71695 21.2203C4.80661 21.2578 4.90282 21.2771 5.00001 21.2771C5.09719 21.2771 5.19341 21.2578 5.28307 21.2203C5.37272 21.1828 5.45403 21.1278 5.52226 21.0586C5.59049 20.9894 5.64429 20.9073 5.68053 20.8172C5.71676 20.727 5.73472 20.6305 5.73334 20.5333V3.23698L8.14819 5.65182C8.21576 5.7222 8.2967 5.77839 8.38626 5.8171C8.47582 5.85581 8.5722 5.87626 8.66977 5.87725C8.76733 5.87824 8.86411 5.85976 8.95444 5.82288C9.04477 5.786 9.12683 5.73147 9.19582 5.66248C9.26481 5.59349 9.31935 5.51142 9.35623 5.42109C9.3931 5.33076 9.41159 5.23398 9.4106 5.13642C9.4096 5.03886 9.38915 4.94247 9.35044 4.85291C9.31174 4.76335 9.25555 4.68241 9.18517 4.61484L5.58009 1.00976C5.51057 0.919292 5.42089 0.84629 5.3182 0.796561C5.21551 0.746832 5.10264 0.721748 4.98855 0.723304Z" fill="#43A047"/>
</svg>
