<svg width="44" height="28" viewBox="0 0 44 28" fill="none" xmlns="http://www.w3.org/2000/svg">
<path d="M2.00004 0.666671C1.77918 0.663547 1.55991 0.704349 1.35496 0.786706C1.15002 0.869062 0.963481 0.99133 0.806199 1.1464C0.648916 1.30148 0.524022 1.48627 0.438776 1.69003C0.35353 1.89379 0.309631 2.11246 0.309631 2.33334C0.309631 2.55421 0.35353 2.77289 0.438776 2.97665C0.524022 3.18041 0.648916 3.3652 0.806199 3.52027C0.963481 3.67534 1.15002 3.79761 1.35496 3.87997C1.55991 3.96233 1.77918 4.00313 2.00004 4H42C42.2209 4.00313 42.4402 3.96233 42.6451 3.87997C42.8501 3.79761 43.0366 3.67534 43.1939 3.52027C43.3512 3.3652 43.476 3.18041 43.5613 2.97665C43.6465 2.77289 43.6904 2.55421 43.6904 2.33334C43.6904 2.11246 43.6465 1.89379 43.5613 1.69003C43.476 1.48627 43.3512 1.30148 43.1939 1.1464C43.0366 0.99133 42.8501 0.869062 42.6451 0.786706C42.4402 0.704349 42.2209 0.663547 42 0.666671H2.00004ZM2.00004 12.3333C1.77918 12.3302 1.55991 12.371 1.35496 12.4534C1.15002 12.5357 0.963481 12.658 0.806199 12.8131C0.648916 12.9681 0.524022 13.1529 0.438776 13.3567C0.35353 13.5605 0.309631 13.7791 0.309631 14C0.309631 14.2209 0.35353 14.4396 0.438776 14.6433C0.524022 14.8471 0.648916 15.0319 0.806199 15.1869C0.963481 15.342 1.15002 15.4643 1.35496 15.5466C1.55991 15.629 1.77918 15.6698 2.00004 15.6667H42C42.2209 15.6698 42.4402 15.629 42.6451 15.5466C42.8501 15.4643 43.0366 15.342 43.1939 15.1869C43.3512 15.0319 43.476 14.8471 43.5613 14.6433C43.6465 14.4396 43.6904 14.2209 43.6904 14C43.6904 13.7791 43.6465 13.5605 43.5613 13.3567C43.476 13.1529 43.3512 12.9681 43.1939 12.8131C43.0366 12.658 42.8501 12.5357 42.6451 12.4534C42.4402 12.371 42.2209 12.3302 42 12.3333H2.00004ZM2.00004 24C1.77918 23.9969 1.55991 24.0377 1.35496 24.12C1.15002 24.2024 0.963481 24.3247 0.806199 24.4797C0.648916 24.6348 0.524022 24.8196 0.438776 25.0234C0.35353 25.2271 0.309631 25.4458 0.309631 25.6667C0.309631 25.8875 0.35353 26.1062 0.438776 26.31C0.524022 26.5137 0.648916 26.6985 0.806199 26.8536C0.963481 27.0087 1.15002 27.1309 1.35496 27.2133C1.55991 27.2957 1.77918 27.3365 2.00004 27.3333H42C42.2209 27.3365 42.4402 27.2957 42.6451 27.2133C42.8501 27.1309 43.0366 27.0087 43.1939 26.8536C43.3512 26.6985 43.476 26.5137 43.5613 26.31C43.6465 26.1062 43.6904 25.8875 43.6904 25.6667C43.6904 25.4458 43.6465 25.2271 43.5613 25.0234C43.476 24.8196 43.3512 24.6348 43.1939 24.4797C43.0366 24.3247 42.8501 24.2024 42.6451 24.12C42.4402 24.0377 42.2209 23.9969 42 24H2.00004Z" fill="#43A047"/>
</svg>
