<svg width="70" height="70" viewBox="0 0 70 70" fill="none" xmlns="http://www.w3.org/2000/svg">
<path d="M54.129 33.0648L47.5271 14.5833H22.4729L15.8725 33.0648L10.379 31.1019L17.6706 10.6852C18.0848 9.52438 19.1844 8.75 20.4167 8.75H49.5833C50.8156 8.75 51.9152 9.52438 52.3294 10.6852L59.621 31.1019L54.129 33.0648Z" fill="#455A64"/>
<path d="M54.5417 62.7083H15.4584C14 62.7083 12.8334 61.6875 12.5417 60.375L7.29169 33.5417H62.7084L57.3125 60.375C57.0209 61.6875 55.8542 62.7083 54.5417 62.7083Z" fill="#43A047"/>
<path d="M62.7083 36.4583H7.29167C5.6875 36.4583 4.375 35.1458 4.375 33.5417V30.625C4.375 29.0208 5.6875 27.7083 7.29167 27.7083H62.7083C64.3125 27.7083 65.625 29.0208 65.625 30.625V33.5417C65.625 35.1458 64.3125 36.4583 62.7083 36.4583Z" fill="#66BB6A"/>
<path d="M35 40.8333C34.195 40.8333 33.5417 41.4867 33.5417 42.2917V56.875C33.5417 57.75 34.125 58.3333 35 58.3333C35.875 58.3333 36.4583 57.75 36.4583 56.875V42.2917C36.4583 41.4867 35.805 40.8333 35 40.8333ZM40.8333 40.8333C40.0283 40.8333 39.375 41.4867 39.375 42.2917V56.875C39.375 57.75 39.9583 58.3333 40.8333 58.3333C41.7083 58.3333 42.2917 57.75 42.2917 56.875V42.2917C42.2917 41.4867 41.6383 40.8333 40.8333 40.8333ZM46.6667 40.8333C45.8617 40.8333 45.2083 41.4867 45.2083 42.2917V56.875C45.2083 57.75 45.7917 58.3333 46.6667 58.3333C47.5417 58.3333 48.125 57.75 48.125 56.875V42.2917C48.125 41.4867 47.4717 40.8333 46.6667 40.8333ZM23.3333 40.8333C22.5283 40.8333 21.875 41.4867 21.875 42.2917V56.875C21.875 57.75 22.4583 58.3333 23.3333 58.3333C24.2083 58.3333 24.7917 57.75 24.7917 56.875V42.2917C24.7917 41.4867 24.1383 40.8333 23.3333 40.8333ZM29.1667 40.8333C28.3617 40.8333 27.7083 41.4867 27.7083 42.2917V56.875C27.7083 57.75 28.2917 58.3333 29.1667 58.3333C30.0417 58.3333 30.625 57.75 30.625 56.875V42.2917C30.625 41.4867 29.9717 40.8333 29.1667 40.8333Z" fill="#1B5E20"/>
<path d="M42.2917 16.0417H27.7083C26.9033 16.0417 26.25 15.3883 26.25 14.5833V8.74999C26.25 7.94499 26.9033 7.29166 27.7083 7.29166H42.2917C43.0967 7.29166 43.75 7.94499 43.75 8.74999V14.5833C43.75 15.3883 43.0967 16.0417 42.2917 16.0417Z" fill="#66BB6A"/>
</svg>
